<svg width="63" height="20" viewBox="0 0 63 20" fill="none" xmlns="http://www.w3.org/2000/svg">
<path d="M26.4136 12.1355C26.0852 12.1355 25.7403 12.1109 25.379 12.0616C25.0259 12.0205 24.6892 11.9548 24.3689 11.8645C24.0487 11.7742 23.7612 11.6674 23.5067 11.5442C23.285 11.4375 23.1289 11.2979 23.0386 11.1255C22.9483 10.9448 22.9154 10.7559 22.9401 10.5588C22.9647 10.3618 23.0345 10.1893 23.1495 10.0415C23.2644 9.88548 23.4164 9.78283 23.6052 9.73356C23.7941 9.67608 24.0076 9.70072 24.2457 9.80747C24.5578 9.95528 24.9109 10.0702 25.3051 10.1524C25.6992 10.2345 26.0687 10.2755 26.4136 10.2755C26.9556 10.2755 27.3334 10.2057 27.5469 10.0661C27.7686 9.91833 27.8794 9.73767 27.8794 9.52416C27.8794 9.33529 27.8014 9.18338 27.6454 9.06841C27.4976 8.95345 27.2307 8.85491 26.8448 8.77279L25.4036 8.46485C24.6153 8.30062 24.0281 8.01321 23.6422 7.60262C23.2562 7.19203 23.0633 6.66238 23.0633 6.01365C23.0633 5.58664 23.1495 5.20069 23.3219 4.85579C23.5026 4.50269 23.753 4.20296 24.0733 3.95661C24.4018 3.71026 24.7877 3.52139 25.2311 3.39C25.6828 3.2504 26.1837 3.1806 26.7339 3.1806C27.1609 3.1806 27.592 3.22987 28.0272 3.32841C28.4707 3.41874 28.8525 3.55834 29.1728 3.74721C29.3616 3.84575 29.4971 3.98125 29.5793 4.15369C29.6614 4.32614 29.6942 4.5068 29.6778 4.69567C29.6614 4.87632 29.5957 5.03645 29.4807 5.17605C29.374 5.31565 29.2262 5.41009 29.0373 5.45936C28.8566 5.50042 28.639 5.46757 28.3845 5.36082C28.1463 5.25406 27.8753 5.17605 27.5715 5.12678C27.2759 5.0693 26.9885 5.04056 26.7093 5.04056C26.4054 5.04056 26.1468 5.07751 25.9333 5.15142C25.7197 5.21711 25.5555 5.31565 25.4405 5.44704C25.3338 5.57843 25.2804 5.73034 25.2804 5.90279C25.2804 6.07524 25.3502 6.22305 25.4898 6.34622C25.6376 6.46119 25.9045 6.55973 26.2905 6.64185L27.7193 6.94979C28.5158 7.12223 29.1112 7.40554 29.5054 7.7997C29.8995 8.19386 30.0966 8.7071 30.0966 9.3394C30.0966 9.76641 30.0104 10.1524 29.8379 10.4973C29.6655 10.8421 29.4191 11.1378 29.0989 11.3841C28.7786 11.6223 28.3927 11.807 27.941 11.9384C27.4894 12.0698 26.9802 12.1355 26.4136 12.1355ZM32.1458 12.1109C31.8009 12.1109 31.5341 12.0082 31.3452 11.8029C31.1563 11.5976 31.0619 11.302 31.0619 10.9161V7.02369C31.0619 6.63774 31.1563 6.34212 31.3452 6.13682C31.5341 5.93153 31.8009 5.82888 32.1458 5.82888C32.4989 5.82888 32.7699 5.93153 32.9588 6.13682C33.1559 6.34212 33.2544 6.63774 33.2544 7.02369V10.9161C33.2544 11.302 33.16 11.5976 32.9711 11.8029C32.7823 12.0082 32.5072 12.1109 32.1458 12.1109ZM32.1458 4.95434C31.7599 4.95434 31.4602 4.86401 31.2467 4.68335C31.0414 4.50269 30.9387 4.23991 30.9387 3.89502C30.9387 3.55834 31.0414 3.29967 31.2467 3.11901C31.4602 2.93836 31.7599 2.84803 32.1458 2.84803C32.5482 2.84803 32.8521 2.93836 33.0573 3.11901C33.2626 3.29967 33.3653 3.55834 33.3653 3.89502C33.3653 4.23991 33.2626 4.50269 33.0573 4.68335C32.8521 4.86401 32.5482 4.95434 32.1458 4.95434ZM35.721 12.1109C35.3926 12.1109 35.138 12.0205 34.9573 11.8399C34.7849 11.6592 34.6987 11.4046 34.6987 11.0762V4.23991C34.6987 3.90323 34.7931 3.64867 34.982 3.47622C35.1708 3.29557 35.4377 3.20524 35.7826 3.20524C36.07 3.20524 36.2958 3.26272 36.4601 3.37768C36.6325 3.48444 36.7885 3.66509 36.9281 3.91966L39.5764 8.67425H39.1453L41.7813 3.91966C41.9291 3.66509 42.0851 3.48444 42.2493 3.37768C42.4218 3.26272 42.6517 3.20524 42.9391 3.20524C43.2676 3.20524 43.5181 3.29557 43.6905 3.47622C43.8712 3.64867 43.9615 3.90323 43.9615 4.23991V11.0762C43.9615 11.4046 43.8753 11.6592 43.7028 11.8399C43.5304 12.0205 43.2758 12.1109 42.9391 12.1109C42.6107 12.1109 42.3561 12.0205 42.1754 11.8399C42.003 11.6592 41.9168 11.4046 41.9168 11.0762V6.83893H42.1754L40.1923 10.2879C40.0773 10.4685 39.9542 10.604 39.8228 10.6943C39.6996 10.7847 39.5313 10.8298 39.3178 10.8298C39.1125 10.8298 38.9441 10.7847 38.8127 10.6943C38.6814 10.604 38.5623 10.4685 38.4555 10.2879L36.4601 6.82661H36.7434V11.0762C36.7434 11.4046 36.6572 11.6592 36.4847 11.8399C36.3123 12.0205 36.0577 12.1109 35.721 12.1109ZM46.6934 12.1109C46.3321 12.1109 46.0529 12.0123 45.8558 11.8152C45.6587 11.6099 45.5602 11.3266 45.5602 10.9653V4.35077C45.5602 3.97303 45.6587 3.68973 45.8558 3.50086C46.0529 3.30378 46.3321 3.20524 46.6934 3.20524C47.0629 3.20524 47.3421 3.30378 47.531 3.50086C47.7281 3.68973 47.8266 3.97303 47.8266 4.35077V7.03601H47.8513L50.8444 3.73489C51.0005 3.57066 51.1647 3.44338 51.3371 3.35305C51.5178 3.25451 51.719 3.20524 51.9407 3.20524C52.2856 3.20524 52.5319 3.29557 52.6798 3.47622C52.8358 3.64867 52.9056 3.85396 52.8892 4.0921C52.8809 4.32203 52.7865 4.53554 52.6058 4.73262L49.625 7.89824V6.97442L52.7537 10.5096C52.9672 10.7477 53.0739 10.9941 53.0739 11.2486C53.0739 11.495 52.9877 11.7003 52.8152 11.8645C52.651 12.0287 52.4047 12.1109 52.0762 12.1109C51.797 12.1109 51.5712 12.0575 51.3987 11.9507C51.2345 11.8358 51.0538 11.6674 50.8568 11.4457L47.8513 8.083H47.8266V10.9653C47.8266 11.3266 47.7322 11.6099 47.5433 11.8152C47.3544 12.0123 47.0711 12.1109 46.6934 12.1109ZM58.0521 12.1355C57.4197 12.1355 56.8614 12.0575 56.3769 11.9015C55.8924 11.7372 55.4818 11.495 55.1451 11.1747C54.8166 10.8545 54.5662 10.4562 54.3937 9.97991C54.2295 9.49542 54.1474 8.93702 54.1474 8.30472V4.35077C54.1474 3.97303 54.2459 3.68973 54.443 3.50086C54.6401 3.30378 54.9193 3.20524 55.2806 3.20524C55.6501 3.20524 55.9293 3.30378 56.1182 3.50086C56.3153 3.68973 56.4138 3.97303 56.4138 4.35077V8.32936C56.4138 8.96166 56.5534 9.43794 56.8326 9.7582C57.1118 10.0785 57.5183 10.2386 58.0521 10.2386C58.5776 10.2386 58.98 10.0785 59.2592 9.7582C59.5384 9.43794 59.678 8.96166 59.678 8.32936V4.35077C59.678 3.97303 59.7724 3.68973 59.9613 3.50086C60.1584 3.30378 60.4376 3.20524 60.7989 3.20524C61.1602 3.20524 61.4353 3.30378 61.6242 3.50086C61.813 3.68973 61.9075 3.97303 61.9075 4.35077V8.30472C61.9075 9.15053 61.7596 9.86084 61.464 10.4357C61.1766 11.0023 60.7455 11.4293 60.1707 11.7167C59.5959 11.9959 58.8896 12.1355 58.0521 12.1355Z" fill="black"/>
<path d="M23.4754 17.5814C23.3246 17.5814 23.2094 17.5397 23.13 17.4563C23.0505 17.3729 23.0108 17.2557 23.0108 17.1048V13.7989C23.0108 13.6441 23.0505 13.5269 23.13 13.4475C23.2134 13.3681 23.3305 13.3284 23.4814 13.3284H24.9289C25.3974 13.3284 25.7588 13.4415 26.0129 13.6679C26.2671 13.8942 26.3942 14.2099 26.3942 14.615C26.3942 14.8771 26.3366 15.1034 26.2214 15.294C26.1063 15.4846 25.9395 15.6316 25.7211 15.7348C25.5066 15.8381 25.2426 15.8897 24.9289 15.8897L24.9765 15.7884H25.2207C25.3875 15.7884 25.5325 15.8301 25.6556 15.9135C25.7826 15.9929 25.8918 16.116 25.9832 16.2828L26.3525 16.9678C26.4081 17.0671 26.4339 17.1644 26.4299 17.2597C26.4259 17.355 26.3902 17.4324 26.3227 17.492C26.2552 17.5516 26.1559 17.5814 26.0249 17.5814C25.8938 17.5814 25.7866 17.5536 25.7032 17.498C25.6238 17.4424 25.5523 17.357 25.4888 17.2418L24.9169 16.1875C24.8574 16.0763 24.7839 16.0009 24.6965 15.9612C24.6132 15.9215 24.5099 15.9016 24.3868 15.9016H23.9341V17.1048C23.9341 17.2557 23.8944 17.3729 23.815 17.4563C23.7395 17.5397 23.6263 17.5814 23.4754 17.5814ZM23.9341 15.2345H24.7621C25.0083 15.2345 25.1929 15.1848 25.316 15.0856C25.4431 14.9863 25.5066 14.8374 25.5066 14.6388C25.5066 14.4442 25.4431 14.2973 25.316 14.198C25.1929 14.0987 25.0083 14.0491 24.7621 14.0491H23.9341V15.2345ZM29.8035 17.5933C29.6367 17.5933 29.4659 17.5794 29.2912 17.5516C29.1204 17.5277 28.9556 17.492 28.7968 17.4444C28.6419 17.3967 28.5029 17.3371 28.3798 17.2657C28.2925 17.218 28.2309 17.1565 28.1952 17.081C28.1595 17.0016 28.1456 16.9222 28.1535 16.8427C28.1654 16.7633 28.1952 16.6938 28.2428 16.6343C28.2945 16.5707 28.358 16.531 28.4335 16.5151C28.5129 16.4953 28.6002 16.5092 28.6955 16.5568C28.8584 16.6482 29.0351 16.7157 29.2257 16.7593C29.4203 16.803 29.6129 16.8249 29.8035 16.8249C30.0934 16.8249 30.2998 16.7812 30.4229 16.6938C30.5461 16.6025 30.6076 16.4893 30.6076 16.3543C30.6076 16.2391 30.5639 16.1478 30.4766 16.0803C30.3892 16.0128 30.2363 15.9552 30.0179 15.9076L29.3448 15.7646C28.9636 15.6852 28.6797 15.5502 28.493 15.3596C28.3104 15.165 28.219 14.9108 28.219 14.5971C28.219 14.3986 28.2607 14.2179 28.3441 14.0551C28.4275 13.8923 28.5446 13.7513 28.6955 13.6322C28.8464 13.513 29.0251 13.4217 29.2316 13.3581C29.4421 13.2946 29.6724 13.2628 29.9226 13.2628C30.145 13.2628 30.3634 13.2906 30.5778 13.3462C30.7923 13.3979 30.9809 13.4753 31.1437 13.5785C31.2231 13.6262 31.2767 13.6877 31.3045 13.7632C31.3363 13.8347 31.3462 13.9081 31.3343 13.9836C31.3264 14.0551 31.2966 14.1186 31.245 14.1742C31.1973 14.2298 31.1358 14.2655 31.0603 14.2814C30.9849 14.2973 30.8935 14.2794 30.7863 14.2278C30.6553 14.1603 30.5163 14.1107 30.3693 14.0789C30.2224 14.0471 30.0715 14.0312 29.9166 14.0312C29.7499 14.0312 29.6069 14.0531 29.4878 14.0968C29.3726 14.1404 29.2833 14.202 29.2197 14.2814C29.1602 14.3608 29.1304 14.4522 29.1304 14.5554C29.1304 14.6706 29.1721 14.7639 29.2555 14.8354C29.3389 14.9069 29.4838 14.9644 29.6903 15.0081L30.3634 15.1511C30.7525 15.2345 31.0424 15.3695 31.233 15.5561C31.4237 15.7388 31.519 15.981 31.519 16.2828C31.519 16.4814 31.4792 16.6621 31.3998 16.8249C31.3204 16.9837 31.2052 17.1207 31.0543 17.2359C30.9034 17.351 30.7228 17.4404 30.5123 17.5039C30.3018 17.5635 30.0656 17.5933 29.8035 17.5933ZM33.1558 17.5754C33.0207 17.5794 32.9155 17.5436 32.8401 17.4682C32.7646 17.3927 32.7269 17.2954 32.7269 17.1763C32.7269 17.085 32.7547 17.0056 32.8103 16.938C32.8619 16.8666 32.9393 16.8288 33.0426 16.8249L33.2153 16.813C33.3742 16.801 33.4933 16.7554 33.5727 16.676C33.6521 16.5965 33.6918 16.4754 33.6918 16.3126V13.7453C33.6918 13.5944 33.7316 13.4793 33.811 13.3998C33.8904 13.3165 34.0036 13.2748 34.1505 13.2748C34.3014 13.2748 34.4166 13.3165 34.496 13.3998C34.5754 13.4793 34.6151 13.5944 34.6151 13.7453V16.3007C34.6151 16.5628 34.5675 16.7852 34.4722 16.9678C34.3808 17.1465 34.2418 17.2855 34.0552 17.3848C33.8686 17.4841 33.6382 17.5436 33.3642 17.5635L33.1558 17.5754ZM37.0994 17.5277C36.9446 17.5277 36.8254 17.4861 36.742 17.4027C36.6586 17.3193 36.6169 17.2001 36.6169 17.0453V13.8108C36.6169 13.656 36.6586 13.5368 36.742 13.4535C36.8254 13.3701 36.9446 13.3284 37.0994 13.3284H38.261C38.9797 13.3284 39.5337 13.511 39.9228 13.8764C40.316 14.2377 40.5125 14.754 40.5125 15.4251C40.5125 15.7626 40.4609 16.0624 40.3577 16.3245C40.2584 16.5826 40.1134 16.801 39.9228 16.9797C39.7322 17.1584 39.4979 17.2954 39.22 17.3907C38.942 17.4821 38.6223 17.5277 38.261 17.5277H37.0994ZM37.5402 16.7713H38.2073C38.4337 16.7713 38.6303 16.7435 38.797 16.6879C38.9638 16.6323 39.1028 16.5489 39.214 16.4377C39.3252 16.3265 39.4086 16.1875 39.4642 16.0207C39.5198 15.85 39.5476 15.6514 39.5476 15.4251C39.5476 14.9724 39.4344 14.6368 39.208 14.4184C38.9857 14.196 38.6521 14.0849 38.2073 14.0849H37.5402V16.7713ZM42.6653 16.2828C42.566 16.2828 42.4807 16.2491 42.4092 16.1816C42.3417 16.1141 42.3079 16.0307 42.3079 15.9314C42.3079 15.8281 42.3417 15.7428 42.4092 15.6753C42.4807 15.6077 42.566 15.574 42.6653 15.574H43.8924C43.9917 15.574 44.075 15.6077 44.1426 15.6753C44.214 15.7428 44.2498 15.8281 44.2498 15.9314C44.2498 16.0307 44.214 16.1141 44.1426 16.1816C44.075 16.2491 43.9917 16.2828 43.8924 16.2828H42.6653ZM46.1965 17.5814C46.0854 17.5814 45.994 17.5555 45.9225 17.5039C45.855 17.4523 45.8114 17.3828 45.7915 17.2954C45.7756 17.2081 45.7935 17.1108 45.8451 17.0036L47.37 13.6619C47.4335 13.5269 47.509 13.4296 47.5963 13.3701C47.6837 13.3065 47.785 13.2748 47.9001 13.2748C48.0153 13.2748 48.1165 13.3065 48.2039 13.3701C48.2913 13.4296 48.3647 13.5269 48.4243 13.6619L49.9611 17.0036C50.0127 17.1108 50.0306 17.2101 50.0147 17.3014C50.0028 17.3888 49.9631 17.4583 49.8956 17.5099C49.8281 17.5575 49.7407 17.5814 49.6335 17.5814C49.4985 17.5814 49.3932 17.5496 49.3178 17.4861C49.2463 17.4225 49.1828 17.3232 49.1272 17.1882L48.7698 16.3603L49.1391 16.6164H46.6552L47.0245 16.3603L46.6731 17.1882C46.6135 17.3272 46.55 17.4285 46.4825 17.492C46.4189 17.5516 46.3236 17.5814 46.1965 17.5814ZM47.8882 14.3112L47.1258 16.128L46.9649 15.8956H48.8294L48.6685 16.128L47.9001 14.3112H47.8882ZM52.1884 17.5814C52.0375 17.5814 51.9224 17.5397 51.843 17.4563C51.7635 17.3729 51.7238 17.2557 51.7238 17.1048V13.7513C51.7238 13.6004 51.7635 13.4832 51.843 13.3998C51.9224 13.3165 52.0375 13.2748 52.1884 13.2748C52.3354 13.2748 52.4485 13.3165 52.528 13.3998C52.6074 13.4832 52.6471 13.6004 52.6471 13.7513V15.0141H54.6008V13.7513C54.6008 13.6004 54.6406 13.4832 54.72 13.3998C54.7994 13.3165 54.9126 13.2748 55.0595 13.2748C55.2104 13.2748 55.3256 13.3165 55.405 13.3998C55.4844 13.4832 55.5241 13.6004 55.5241 13.7513V17.1048C55.5241 17.2557 55.4844 17.3729 55.405 17.4563C55.3256 17.5397 55.2104 17.5814 55.0595 17.5814C54.9126 17.5814 54.7994 17.5397 54.72 17.4563C54.6406 17.3729 54.6008 17.2557 54.6008 17.1048V15.7825H52.6471V17.1048C52.6471 17.2557 52.6074 17.3729 52.528 17.4563C52.4525 17.5397 52.3393 17.5814 52.1884 17.5814ZM57.962 17.5814C57.827 17.5814 57.7237 17.5436 57.6522 17.4682C57.5808 17.3927 57.545 17.2875 57.545 17.1525V13.7036C57.545 13.5686 57.5827 13.4634 57.6582 13.3879C57.7376 13.3125 57.8448 13.2748 57.9799 13.2748C58.099 13.2748 58.1923 13.2986 58.2598 13.3462C58.3313 13.3899 58.3968 13.4674 58.4564 13.5785L59.8323 16.0922H59.6298L61.0058 13.5785C61.0654 13.4674 61.1289 13.3899 61.1964 13.3462C61.2679 13.2986 61.3612 13.2748 61.4764 13.2748C61.6114 13.2748 61.7146 13.3125 61.7861 13.3879C61.8615 13.4634 61.8993 13.5686 61.8993 13.7036V17.1525C61.8993 17.2875 61.8635 17.3927 61.7921 17.4682C61.7206 17.5436 61.6173 17.5814 61.4823 17.5814C61.3473 17.5814 61.2421 17.5436 61.1666 17.4682C61.0951 17.3927 61.0594 17.2875 61.0594 17.1525V14.7401H61.1904L60.0825 16.7236C60.0349 16.7991 59.9832 16.8566 59.9276 16.8964C59.876 16.9321 59.8065 16.95 59.7192 16.95C59.6318 16.95 59.5603 16.9301 59.5047 16.8904C59.4491 16.8507 59.3995 16.7951 59.3558 16.7236L58.236 14.7341H58.3789V17.1525C58.3789 17.2875 58.3432 17.3927 58.2717 17.4682C58.2042 17.5436 58.101 17.5814 57.962 17.5814Z" fill="black"/>
<path fill-rule="evenodd" clip-rule="evenodd" d="M6.26387 8.92729V17.0324L5.31481 16.0833V11.9321C5.31481 11.2895 4.8559 10.7685 4.28981 10.7685H2.92314C2.35705 10.7685 1.89815 11.2895 1.89815 11.9321L1.89815 12.6586C0.600401 11.2098 0.647611 8.982 2.03978 7.58983L7.07132 2.55829C8.51235 1.11726 10.8487 1.11726 12.2898 2.55829L17.3213 7.58983C18.7623 9.03086 18.7623 11.3672 17.3213 12.8083L13.8565 16.2731V6.08469C13.8565 5.4217 13.3975 4.88424 12.8315 4.88424H11.4648C10.8987 4.88424 10.4398 5.4217 10.4398 6.08469V18.4893C10.4398 18.6087 10.4547 18.724 10.4824 18.8329C10.1366 18.9095 9.78184 18.9359 9.42988 18.9121C9.46921 18.7819 9.49072 18.641 9.49072 18.4939V8.92729C9.49072 8.26685 9.05731 7.73146 8.52266 7.73146H7.23193C6.69729 7.73146 6.26387 8.26685 6.26387 8.92729Z" fill="black"/>
</svg>
