<svg width="18" height="18" viewBox="0 0 18 18" fill="none" xmlns="http://www.w3.org/2000/svg">
<path fill-rule="evenodd" clip-rule="evenodd" d="M5.30487 7.44978V15.5548L4.3558 14.6058V10.4546C4.3558 9.81196 3.8969 9.29097 3.33081 9.29097H1.96414C1.39805 9.29097 0.939145 9.81196 0.939145 10.4546V11.1811C-0.358602 9.73229 -0.31139 7.50448 1.08077 6.11231L6.11232 1.08077C7.55335 -0.360259 9.88972 -0.360257 11.3307 1.08077L16.3623 6.11232C17.8033 7.55335 17.8033 9.88972 16.3623 11.3307L12.8975 14.7956V4.60718C12.8975 3.94419 12.4385 3.40673 11.8725 3.40673H10.5058C9.9397 3.40673 9.48079 3.94419 9.48079 4.60718V17.0118C9.48079 17.1312 9.49568 17.2465 9.52339 17.3554C9.17756 17.432 8.82283 17.4584 8.47088 17.4346C8.51021 17.3044 8.53171 17.1635 8.53171 17.0164V7.44978C8.53171 6.78934 8.0983 6.25395 7.56366 6.25395H6.27292C5.73828 6.25395 5.30487 6.78934 5.30487 7.44978Z" fill="url(#paint0_linear_37_57)"/>
<defs>
<linearGradient id="paint0_linear_37_57" x1="9" y1="4.5" x2="8.72153" y2="17.4431" gradientUnits="userSpaceOnUse">
<stop stop-color="#556EE6"/>
<stop offset="1"/>
</linearGradient>
</defs>
</svg>
