<svg width="19" height="20" viewBox="0 0 19 20" fill="none" xmlns="http://www.w3.org/2000/svg">
<path fill-rule="evenodd" clip-rule="evenodd" d="M6.26387 8.92729V17.0324L5.31481 16.0833V11.9321C5.31481 11.2895 4.8559 10.7685 4.28981 10.7685H2.92314C2.35705 10.7685 1.89815 11.2895 1.89815 11.9321L1.89815 12.6586C0.600401 11.2098 0.647611 8.982 2.03978 7.58983L7.07132 2.55829C8.51235 1.11726 10.8487 1.11726 12.2898 2.55829L17.3213 7.58983C18.7623 9.03086 18.7623 11.3672 17.3213 12.8083L13.8565 16.2731V6.08469C13.8565 5.4217 13.3975 4.88424 12.8315 4.88424H11.4648C10.8987 4.88424 10.4398 5.4217 10.4398 6.08469V18.4893C10.4398 18.6087 10.4547 18.724 10.4824 18.8329C10.1366 18.9095 9.78184 18.9359 9.42988 18.9121C9.46921 18.7819 9.49072 18.641 9.49072 18.4939V8.92729C9.49072 8.26685 9.05731 7.73146 8.52266 7.73146H7.23193C6.69729 7.73146 6.26387 8.26685 6.26387 8.92729Z" fill="black"/>
</svg>
